<?xml version="1.0" encoding="utf-8"?>
<!-- Generator: Adobe Illustrator 15.0.2, SVG Export Plug-In . SVG Version: 6.00 Build 0)  -->
<!DOCTYPE svg PUBLIC "-//W3C//DTD SVG 1.1//EN" "http://www.w3.org/Graphics/SVG/1.1/DTD/svg11.dtd">
<svg version="1.1" xmlns="http://www.w3.org/2000/svg" xmlns:xlink="http://www.w3.org/1999/xlink" x="0px" y="0px" width="1280px"
	 height="720px" viewBox="0 0 1280 720" enable-background="new 0 0 1280 720" xml:space="preserve">
<g id="Layer_1">
	<g id="BKG" display="none">
		<g display="inline">
			<rect x="0.5" y="0.5" fill="#5BBF3B" width="1279" height="719"/>
			<path d="M1279,1v718H1V1H1279 M1280,0H0v720h1280V0L1280,0z"/>
		</g>
	</g>
	<g id="text" display="none">
		<g display="inline">
			<rect x="295.767" y="520.082" fill="none" width="688.465" height="52.497"/>
			<path d="M386.027,531.68h-2.9v2.931h-11.632v5.801h-5.772v-20.334h17.404v2.93h2.9V531.68z M380.197,531.68v-8.674h-8.702v8.674
				H380.197z"/>
			<path d="M410.039,540.41h-8.702v-2.958h-2.9v-2.843h-2.931v5.801h-5.771v-20.334h17.403v2.93h2.9v8.674h-5.83v2.931h2.93v2.843
				h2.9L410.039,540.41L410.039,540.41z M404.209,528.809v-5.803h-8.702v8.674h5.831v-2.87L404.209,528.809L404.209,528.809z"/>
			<path d="M434.051,540.41h-20.305v-20.334h20.305v2.93h-14.532v5.803h11.633v2.871h-11.633v5.772h14.532V540.41z"/>
			<path d="M458.063,537.452h-2.931v2.958h-14.532v-2.958h-2.843v-2.843h5.772v2.843h8.702v-5.772H440.6v-2.87h-2.843v-5.804h2.843
				v-2.93h11.633v2.93h2.899v2.845h-5.771v-2.845h-5.831v5.804h11.603v2.87h2.93v5.772H458.063z"/>
			<path d="M482.074,537.452h-2.931v2.958h-14.531v-2.958h-2.844v-2.843h5.772v2.843h8.702v-5.772h-11.632v-2.87h-2.843v-5.804
				h2.843v-2.93h11.632v2.93h2.899v2.845h-5.771v-2.845h-5.831v5.804h11.603v2.87h2.931L482.074,537.452L482.074,537.452z"/>
			<path d="M530.098,537.452h-2.93v2.958h-14.532v-2.958h-2.843v-2.843h5.772v2.843h8.701v-5.772h-11.632v-2.87h-2.843v-5.804h2.843
				v-2.93h11.632v2.93h2.9v2.845h-5.771v-2.845h-5.831v5.804h11.603v2.87h2.93L530.098,537.452L530.098,537.452z"/>
			<path d="M554.109,531.68h-2.9v2.931h-11.632v5.801h-5.772v-20.334h17.404v2.93h2.9V531.68z M548.279,531.68v-8.674h-8.702v8.674
				H548.279z"/>
			<path d="M578.121,540.41h-5.83v-5.801h-8.47v5.801h-6.004V525.85h2.871v-2.844h2.901v-2.93h8.702v2.93h2.93v2.844h2.9
				L578.121,540.41L578.121,540.41z M572.291,531.68v-5.83h-2.843v-2.844h-2.931v2.844h-2.697v5.83H572.291z"/>
			<path d="M602.133,537.452h-2.899v2.958H587.63v-2.958h-2.93v-2.843h-2.872v-8.761h2.872v-2.844h2.93v-2.93h11.604v2.93h2.899
				v2.844h-5.83v-2.844h-5.771v2.844h-2.901v8.761h2.901v2.843h5.771v-2.843h5.83V537.452z"/>
			<path d="M626.146,540.41H605.84v-20.334h20.306v2.93h-14.532v5.803h11.632v2.871h-11.632v5.772h14.532V540.41z"/>
			<path d="M650.156,537.452h-2.9v2.958h-17.404v-20.334h17.404v2.93h2.9v5.803h-2.9v2.437h2.9V537.452z M644.326,528.809v-5.803
				h-8.702v5.803H644.326z M644.326,537.452v-6.208h-8.702v6.208H644.326z"/>
			<path d="M674.168,540.41h-5.83v-5.801h-8.471v5.801h-6.004V525.85h2.871v-2.844h2.9v-2.93h8.702v2.93h2.93v2.844h2.9
				L674.168,540.41L674.168,540.41z M668.338,531.68v-5.83h-2.843v-2.844h-2.93v2.844h-2.698v5.83H668.338z"/>
			<path d="M698.18,540.41h-8.7v-2.958h-2.901v-2.843h-2.93v5.801h-5.772v-20.334h17.404v2.93h2.899v8.674h-5.83v2.931h2.931v2.843
				h2.899V540.41L698.18,540.41z M692.35,528.809v-5.803h-8.702v8.674h5.831v-2.87L692.35,528.809L692.35,528.809z"/>
			<path d="M744.753,523.006h-5.802v17.404h-5.801v-17.404h-5.83v-2.93h17.433V523.006L744.753,523.006z"/>
			<path d="M770.215,537.452h-2.899v2.958h-14.533v-2.958h-2.871v-14.446h2.871v-2.93h14.533v2.93h2.899V537.452z M764.385,537.452
				v-14.446h-8.702v14.446H764.385z"/>
			<path d="M818.238,537.452h-2.931v2.958h-14.532v-2.958h-2.843v-2.843h5.771v2.843h8.703v-5.772h-11.633v-2.87h-2.843v-5.804
				h2.843v-2.93h11.633v2.93h2.899v2.845h-5.772v-2.845h-5.83v5.804h11.604v2.87h2.931V537.452z"/>
			<path d="M840.799,523.006h-5.801v17.404h-5.801v-17.404h-5.832v-2.93h17.434V523.006z"/>
			<path d="M866.262,540.41h-5.83v-5.801h-8.471v5.801h-6.004V525.85h2.871v-2.844h2.899v-2.93h8.703v2.93h2.931v2.844h2.899
				L866.262,540.41L866.262,540.41z M860.432,531.68v-5.83h-2.844v-2.844h-2.93v2.844h-2.697v5.83H860.432z"/>
			<path d="M890.273,540.41h-8.703v-2.958h-2.9v-2.843h-2.93v5.801h-5.771v-20.334h17.404v2.93h2.9v8.674h-5.83v2.931h2.93v2.843
				h2.9V540.41z M884.443,528.809v-5.803h-8.703v8.674h5.83v-2.87L884.443,528.809L884.443,528.809z"/>
			<path d="M912.834,523.006h-5.801v17.404h-5.802v-17.404H895.4v-2.93h17.434V523.006z"/>
		</g>
	</g>
	<g id="logo">
		<g id="g10" transform="matrix(1.25 0 0 -1.25 -926.7017 1570.637)">
			<path id="path12" fill="#231F20" d="M1447.668,979.882h-76.48v75.664h76.48V979.882z"/>
			<path id="path14" fill="#FFFFFF" d="M1445.833,1053.711l-73.013-0.204l0.204-71.382l72.605,0.203L1445.833,1053.711
				 M1390.155,990.164h-10.33v10.33h10.33V990.164 M1390.155,1007.633h-10.33v8.841h10.33V1007.633 M1390.155,1023.613h-10.33v9.177
				h10.33V1023.613 M1379.825,1039.928v9.177h10.33v-9.177H1379.825 M1406.136,990.164h-8.841v10.33h8.841V990.164
				 M1406.136,1007.633h-8.841v8.841h8.841V1007.633 M1406.136,1023.613h-8.841v9.177h8.841V1023.613 M1397.293,1039.928v9.177
				h8.842v-9.177H1397.293 M1422.45,990.164h-9.177v10.33h9.177V990.164 M1422.45,1007.633h-9.177v8.841h9.177V1007.633
				 M1422.45,1023.613h-9.177v9.177h9.177V1023.613 M1413.274,1039.928v9.177h9.177v-9.177H1413.274 M1438.766,990.164h-9.177v10.33
				h9.177V990.164 M1438.766,1007.633h-9.177v8.841h9.177V1007.633 M1438.766,1023.613h-9.177v9.177h9.177V1023.613
				 M1429.589,1039.928v9.177h9.177v-9.177H1429.589z"/>
			<path id="path16" fill="#ED1C24" d="M936.556,981.247l89.73,127.469v-16.945h28.497v-16.944l14.25,18.484l25.802-36.199v32.734
				h34.274v-47.752l27.343,37.355l20.795-29.268l-29.653-41.975l15.789-22.722l84.337,118.612l61.234-85.493v70.089h37.74v-37.74
				c0,0,14.895,38.125,63.168,38.125c48.273,0,60.836-38.51,60.836-38.51v36.585h59.691l21.181,30.423l40.822-59.306
				l-90.884-125.543v39.28l-30.423-40.436v55.455c0,0-20.407-38.509-61.555-38.509c-41.148,0-62.066,37.739-62.066,37.739
				l-31.577-43.131l-37.74,53.53v-45.827h-59.306l-18.486-26.959l-27.727,39.28l-18.87-26.958l-27.728,43.517l-31.194-44.672v28.498
				l-19.255-27.344l-26.958,37.741l-29.268-39.28v17.33h-26.573l-18.1-26.573L936.556,981.247 M1409.483,1051.231
				c-17.928,0-32.463-14.534-32.463-32.462c0-17.93,14.535-32.464,32.463-32.464c17.929,0,32.463,14.534,32.463,32.464
				C1441.946,1036.698,1427.411,1051.231,1409.483,1051.231 M1535.568,1074.309v-35.895l14.073,17.948L1535.568,1074.309
				 M989.318,967.155v31.125l-11.466-14.47L989.318,967.155 M1070.818,1004.832l23.344-34.947v68.257l-23.344-33.309
				 M1213.083,962.888v31.095l-10.554-14.072L1213.083,962.888L1213.083,962.888z"/>
			
				<linearGradient id="path36_2_" gradientUnits="userSpaceOnUse" x1="2031.2129" y1="1746.2382" x2="2031.2119" y2="1571.3975" gradientTransform="matrix(1.5625 0 0 1.5625 -1910.1696 -1620.6664)">
				<stop  offset="0" style="stop-color:#1E2061"/>
				<stop  offset="0.5168" style="stop-color:#0D3E6B"/>
				<stop  offset="0.6236" style="stop-color:#176FC1"/>
				<stop  offset="0.6258" style="stop-color:#FFFFFF"/>
				<stop  offset="0.6348" style="stop-color:#FFFFFF"/>
				<stop  offset="1" style="stop-color:#FFFFFF"/>
			</linearGradient>
			<path id="path36" fill="url(#path36_2_)" d="M942.88,982.435l77.858,109.548V957.302H993.42v60.102l-22.675-33.056l19.123-27.866
				l-14.479-20.761L942.88,982.435 M1048.057,983.255l26.225-37.7l15.298,21.036l-26.772,39.338l30.323,44.257l-23.494,34.967
				l-15.572-20.762l12.294-17.211l-16.118-17.211v55.457H1026.2V952.658l21.855,30.595 M1125.915,987.08l28.139-42.344
				l15.298,22.947l-28.139,40.978l28.685,42.618l-13.933,19.67l-32.782-42.891v56.823h-23.495V953.205L1125.915,987.08
				 M1212.79,954.297l-16.391,25.953l22.402,35.514v-59.828h25.953v136.047l-78.406-110.913l33.056-48.08L1212.79,954.297
				 M1273.709,956.483v56.55l42.617-61.194l24.314,34.967v97.255h-26.498v-83.869l-65.019,92.884V956.483H1273.709
				 M1476.959,950.199l24.314,32.509v98.622h-24.314V950.199 M1507.01,1081.602V949.927l77.313,108.728l-32.782,49.174
				l-15.845-23.221l21.035-26.772l-27.319-34.695l0.033,58.423L1507.01,1081.602 M1409.483,1082.422
				c-35.156,0-63.653-28.498-63.653-63.653c0-35.155,28.498-63.652,63.653-63.652c35.155,0,63.652,28.497,63.652,63.652
				C1473.136,1053.924,1444.637,1082.422,1409.483,1082.422 M1447.674,1018.769c0-21.092-17.099-38.191-38.191-38.191
				c-21.093,0-38.192,17.098-38.192,38.191s17.099,38.192,38.192,38.192C1430.575,1056.961,1447.674,1039.862,1447.674,1018.769z"/>
			<g>
				<path id="path38" fill="#FFFFFF" d="M942.151,982.296h-4.766l86.326,122.603l-3.441-13.24L942.151,982.296z"/>
				<path id="path40" fill="#FFFFFF" d="M1026.093,1085.568h23.302l4.238,4.237h-27.275L1026.093,1085.568z"/>
				<path id="path42" fill="#FFFFFF" d="M1054.958,1073.652l14.298,19.065v-8.209l-14.034-18.536L1054.958,1073.652z"/>
				<path id="path44" fill="#FFFFFF" d="M1055.222,1040.816l-3.973-9.533l14.564,15.094h-6.355L1055.222,1040.816L1055.222,1040.816
					z"/>
				<path id="path46" fill="#FFFFFF" d="M1096.002,1090.599h31.247l-3.973-5.296h-23.037L1096.002,1090.599z"/>
				<path id="path48" fill="#FFFFFF" d="M1125.395,1030.224l3.972,11.651l26.216,34.955v-6.091L1125.395,1030.224L1125.395,1030.224
					z"/>
				<path id="path50" fill="#FFFFFF" d="M1166.142,981.61l78.263,110.781l1.192,7.371l-81.731-114.791L1166.142,981.61
					L1166.142,981.61z"/>
				<path id="path52" fill="#FFFFFF" d="M1315.258,1084.508h25.422l4.766,4.502h-34.952L1315.258,1084.508z"/>
				<path id="path54" fill="#FFFFFF" d="M1346.035,1046.847c0,0,12.975,43.957,70.438,41.574c-0.53-2.118-1.323-4.767-1.323-4.767
					s-45.545,6.091-66.73-41.573C1347.094,1044.198,1346.035,1046.847,1346.035,1046.847z"/>
				<path id="path56" fill="#FFFFFF" d="M1472.286,1086.892h57.991l20.92,27.804v-7.149l-17.477-25.686h-56.137L1472.286,1086.892
					L1472.286,1086.892z"/>
				<path id="path58" fill="#FFFFFF" d="M1534.779,1037.374l15.094,19.066h6.09l-24.626-31.512L1534.779,1037.374z"/>
			</g>
		</g>
	</g>
	<text transform="matrix(1 0 0 1 557.8174 189.5131)" display="none" font-family="'AdobeArabic-Regular'" font-size="64">The Processing of Doh</text>
	<g>
		<linearGradient id="SVGID_1_" gradientUnits="userSpaceOnUse" x1="582.333" y1="157.3969" x2="584.081" y2="190.7505">
			<stop  offset="0" style="stop-color:#1E2061"/>
			<stop  offset="1" style="stop-color:#0D3E6B"/>
		</linearGradient>
		<path fill="url(#SVGID_1_)" d="M597.599,189.513v-1.281c2.688-0.219,2.969-0.594,2.969-3.5v-7.406c0-3.781-1.5-5.563-4.469-5.531
			c-1.594,0-3.406,0.781-4.656,2.281v10.656c0,2.906,0.281,3.219,3.031,3.5v1.281h-10.313v-1.281
			c2.969-0.281,3.281-0.531,3.281-3.594v-22.813c-2.594-0.25-5.031-0.313-9.375-0.313h-3.031v22.125
			c0,3.906,0.406,4.281,4.625,4.563v1.313h-13.438v-1.313c4.063-0.281,4.469-0.656,4.469-4.563v-22.125h-2.719
			c-4.375,0-5.188,0.406-5.938,1.5c-0.531,0.813-1,1.906-1.594,4.094h-1.344c0.219-2.844,0.438-5.938,0.531-8.469h0.875
			c0.719,1.063,1.313,1.156,2.688,1.156h19.75c3.719,0,4.5-0.281,4.5-1.188v-0.594c1-0.125,2.688-0.625,4-1.094v15.438
			c1.781-1.813,4.156-3.281,6.531-3.313c3.938-0.094,6.625,2.25,6.625,7.906v7.75c0,3.031,0.344,3.313,3.094,3.531v1.281H597.599z"
			/>
		<linearGradient id="SVGID_2_" gradientUnits="userSpaceOnUse" x1="618.3384" y1="169.1342" x2="619.4343" y2="190.0459">
			<stop  offset="0" style="stop-color:#1E2061"/>
			<stop  offset="1" style="stop-color:#0D3E6B"/>
		</linearGradient>
		<path fill="url(#SVGID_2_)" d="M627.192,185.451c-3,3.781-6.344,4.594-7.844,4.594c-5.719,0-9.094-4.594-9.094-9.688
			c0-3.031,1.094-5.781,2.969-7.813c2-2.188,4.531-3.5,7-3.5h0.031c3.969,0,7.125,3.406,7.125,7.031c0,0.875-0.25,1.281-1.094,1.469
			c-0.844,0.125-6.656,0.594-12.031,0.781c0.094,5.906,3.563,8.406,6.781,8.406c1.906,0,3.688-0.719,5.375-2.281L627.192,185.451z
			 M619.13,170.763c-2,0-4,1.781-4.656,5.594c2.469,0,4.938,0,7.531-0.094c0.813-0.031,1.094-0.281,1.094-0.875
			c0-2.406-1.5-4.625-3.938-4.625H619.13z"/>
		<linearGradient id="SVGID_3_" gradientUnits="userSpaceOnUse" x1="653.4697" y1="159.2524" x2="655.058" y2="189.5594">
			<stop  offset="0" style="stop-color:#1E2061"/>
			<stop  offset="1" style="stop-color:#0D3E6B"/>
		</linearGradient>
		<path fill="url(#SVGID_3_)" d="M655.13,159.794c3.344,0,6.031,0.531,7.906,1.906s3.063,3.5,3.063,6.5
			c0,5.969-4.563,8.844-9.125,9.375c-0.719,0.094-1.688,0.094-2.188,0.063l-3.5-0.875v6.969c0,3.906,0.406,4.156,4.656,4.469v1.313
			H642.88v-1.313c3.719-0.313,4.125-0.688,4.125-4.5v-18.031c0-4.094-0.406-4.281-3.875-4.5v-1.375H655.13z M651.286,175.169
			c0.594,0.219,1.875,0.563,3.344,0.563c2.906,0,6.594-1.563,6.594-7.375c0-4.969-3.188-7.031-6.875-7.031
			c-1.281,0-2.25,0.25-2.563,0.563s-0.5,0.813-0.5,2.094V175.169z"/>
		<linearGradient id="SVGID_4_" gradientUnits="userSpaceOnUse" x1="676.1191" y1="168.8871" x2="677.2076" y2="189.6565">
			<stop  offset="0" style="stop-color:#1E2061"/>
			<stop  offset="1" style="stop-color:#0D3E6B"/>
		</linearGradient>
		<path fill="url(#SVGID_4_)" d="M676.192,173.982c1.531-2.5,3.438-4.938,5.594-4.938c1.688,0,2.813,1.219,2.813,2.344
			c0,1.063-0.625,2-1.625,2.469c-0.563,0.219-0.969,0.125-1.25-0.125c-0.719-0.656-1.25-0.938-2.031-0.938
			c-1.188,0-2.594,1.344-3.594,3.781v8.156c0,3,0.219,3.281,3.844,3.563v1.219h-11.094v-1.219c2.813-0.281,3.219-0.563,3.219-3.563
			v-9.469c0-2.906-0.25-3.094-2.844-3.469v-1.031c2.313-0.375,4.5-0.906,6.875-1.875v5.094H676.192z"/>
		<linearGradient id="SVGID_5_" gradientUnits="userSpaceOnUse" x1="695.9229" y1="169.0668" x2="697.0217" y2="190.0341">
			<stop  offset="0" style="stop-color:#1E2061"/>
			<stop  offset="1" style="stop-color:#0D3E6B"/>
		</linearGradient>
		<path fill="url(#SVGID_5_)" d="M696.599,169.044c5.938,0,10.313,4.594,10.313,10.125c0,7.375-5.625,10.875-10.344,10.875
			c-6.656,0-10.531-5-10.531-10.031c0-7.469,6.125-10.969,10.531-10.969H696.599z M696.005,170.576
			c-2.688,0-5.188,2.719-5.188,7.875c0,5.781,2.5,10,6.25,10c2.688,0,5.094-1.813,5.094-8.219c0-5.469-2.188-9.656-6.094-9.656
			H696.005z"/>
		<linearGradient id="SVGID_6_" gradientUnits="userSpaceOnUse" x1="718.7969" y1="169.2338" x2="719.889" y2="190.0734">
			<stop  offset="0" style="stop-color:#1E2061"/>
			<stop  offset="1" style="stop-color:#0D3E6B"/>
		</linearGradient>
		<path fill="url(#SVGID_6_)" d="M728.255,185.294c-2.094,2.719-5.25,4.75-7.969,4.75c-6.063,0-9.563-4.688-9.563-9.531
			c0-3.469,1.594-6.563,4.719-8.875c2.563-1.875,5.375-2.594,7.156-2.594h0.063c1.906,0,3.438,0.563,4.188,1.219
			c0.625,0.5,0.75,0.906,0.75,1.406c0,1.063-1.031,2.094-1.625,2.094c-0.281,0-0.5-0.125-0.906-0.531
			c-1.5-1.344-3.094-1.969-4.75-1.969c-2.875,0-5.5,2.313-5.5,7.156c0,6.281,4.563,8.313,7.063,8.313c1.938,0,3.5-0.531,5.594-2.469
			L728.255,185.294z"/>
		<linearGradient id="SVGID_7_" gradientUnits="userSpaceOnUse" x1="738.7441" y1="169.1332" x2="739.8401" y2="190.0459">
			<stop  offset="0" style="stop-color:#1E2061"/>
			<stop  offset="1" style="stop-color:#0D3E6B"/>
		</linearGradient>
		<path fill="url(#SVGID_7_)" d="M747.599,185.451c-3,3.781-6.344,4.594-7.844,4.594c-5.719,0-9.094-4.594-9.094-9.688
			c0-3.031,1.094-5.781,2.969-7.813c2-2.188,4.531-3.5,7-3.5h0.031c3.969,0,7.125,3.406,7.125,7.031c0,0.875-0.25,1.281-1.094,1.469
			c-0.844,0.125-6.656,0.594-12.031,0.781c0.094,5.906,3.563,8.406,6.781,8.406c1.906,0,3.688-0.719,5.375-2.281L747.599,185.451z
			 M739.536,170.763c-2,0-4,1.781-4.656,5.594c2.469,0,4.938,0,7.531-0.094c0.813-0.031,1.094-0.281,1.094-0.875
			c0-2.406-1.5-4.625-3.938-4.625H739.536z"/>
		<linearGradient id="SVGID_8_" gradientUnits="userSpaceOnUse" x1="756.9375" y1="169.1166" x2="758.0319" y2="189.9991">
			<stop  offset="0" style="stop-color:#1E2061"/>
			<stop  offset="1" style="stop-color:#0D3E6B"/>
		</linearGradient>
		<path fill="url(#SVGID_8_)" d="M762.567,175.138c-0.906-2.688-2.531-4.594-4.813-4.594c-1.688,0-2.875,1.25-2.875,3.031
			c0,1.875,1.75,2.969,3.844,3.781c3.531,1.406,5.938,3.063,5.938,6.281c0,4.281-3.938,6.406-7.781,6.406
			c-2.406,0-4.594-0.844-5.375-1.5c-0.313-0.594-0.75-3.813-0.813-5.625l1.281-0.188c0.875,3.063,2.969,5.781,5.719,5.781
			c1.688,0,3.188-1.281,3.188-3.094c0-1.875-1.219-2.906-3.594-3.969c-2.688-1.219-5.906-2.781-5.906-6.406c0-3.25,2.813-6,7.188-6
			c2,0,3.25,0.406,4.188,0.813c0.406,1,0.969,3.813,1.063,4.906L762.567,175.138z"/>
		<linearGradient id="SVGID_9_" gradientUnits="userSpaceOnUse" x1="773.9063" y1="169.1161" x2="775.0007" y2="189.9986">
			<stop  offset="0" style="stop-color:#1E2061"/>
			<stop  offset="1" style="stop-color:#0D3E6B"/>
		</linearGradient>
		<path fill="url(#SVGID_9_)" d="M779.536,175.138c-0.906-2.688-2.531-4.594-4.813-4.594c-1.688,0-2.875,1.25-2.875,3.031
			c0,1.875,1.75,2.969,3.844,3.781c3.531,1.406,5.938,3.063,5.938,6.281c0,4.281-3.938,6.406-7.781,6.406
			c-2.406,0-4.594-0.844-5.375-1.5c-0.313-0.594-0.75-3.813-0.813-5.625l1.281-0.188c0.875,3.063,2.969,5.781,5.719,5.781
			c1.688,0,3.188-1.281,3.188-3.094c0-1.875-1.219-2.906-3.594-3.969c-2.688-1.219-5.906-2.781-5.906-6.406c0-3.25,2.813-6,7.188-6
			c2,0,3.25,0.406,4.188,0.813c0.406,1,0.969,3.813,1.063,4.906L779.536,175.138z"/>
		<linearGradient id="SVGID_10_" gradientUnits="userSpaceOnUse" x1="788.126" y1="160.1987" x2="789.6767" y2="189.7879">
			<stop  offset="0" style="stop-color:#1E2061"/>
			<stop  offset="1" style="stop-color:#0D3E6B"/>
		</linearGradient>
		<path fill="url(#SVGID_10_)" d="M784.349,189.513v-1.219c2.906-0.281,3.25-0.563,3.25-3.75v-9.188
			c0-2.875-0.156-3.094-2.906-3.563v-1.094c2.5-0.406,4.844-0.938,6.938-1.75v15.594c0,3.156,0.313,3.406,3.281,3.75v1.219H784.349z
			 M786.786,162.701c0-1.469,1.188-2.563,2.563-2.563s2.438,1.094,2.438,2.563c0,1.313-1.063,2.469-2.5,2.469
			C787.974,165.169,786.786,164.013,786.786,162.701z"/>
		<linearGradient id="SVGID_11_" gradientUnits="userSpaceOnUse" x1="807.6191" y1="168.7182" x2="808.7408" y2="190.1214">
			<stop  offset="0" style="stop-color:#1E2061"/>
			<stop  offset="1" style="stop-color:#0D3E6B"/>
		</linearGradient>
		<path fill="url(#SVGID_11_)" d="M810.411,189.513v-1.219c2.656-0.281,2.969-0.656,2.969-3.875v-7.438
			c0-3.188-1.281-5.094-4.125-5.094c-1.75,0-3.469,1.094-4.875,2.25v10.563c0,3.125,0.25,3.313,2.938,3.594v1.219h-10.313v-1.219
			c3.094-0.375,3.344-0.594,3.344-3.656v-9.188c0-2.969-0.313-3.156-2.75-3.594v-1.156c2.219-0.344,4.625-0.938,6.781-1.813v3.688
			c0.938-0.688,1.938-1.406,3.125-2.188c1.313-0.844,2.469-1.344,3.844-1.344c3.688,0,6.031,2.594,6.031,7.125v8.531
			c0,3.125,0.281,3.25,2.969,3.594v1.219H810.411z"/>
		<linearGradient id="SVGID_12_" gradientUnits="userSpaceOnUse" x1="832.0615" y1="169.0224" x2="833.745" y2="201.1453">
			<stop  offset="0" style="stop-color:#1E2061"/>
			<stop  offset="1" style="stop-color:#0D3E6B"/>
		</linearGradient>
		<path fill="url(#SVGID_12_)" d="M843.161,169.951c-0.344,0.719-1.313,1.938-2.094,2.344l-2.625-0.125
			c0.781,0.969,1.313,2.375,1.313,4c0,4.875-4.219,7.281-8.313,7.281c-0.875,0-1.688-0.125-2.438-0.219
			c-0.594,0.406-1.188,1.125-1.188,1.719c0,0.875,0.844,1.781,2.938,1.781c1.625,0,3.219-0.094,4.813-0.094
			c2.813,0,6.781,0.875,6.781,5.469c0,4.75-5.563,9.188-11.781,9.188c-5.281,0-8.094-3-8.156-5.594c0-1.094,0.469-1.969,1.219-2.625
			c1.031-0.969,2.656-2.156,3.75-3.031c-1.719-0.5-2.875-1.5-3.469-2.5c-0.438-0.656-0.625-1.531-0.531-2.031
			c1.906-0.688,3.406-1.875,4.125-2.75c-2.188-0.906-4.094-3.094-4.094-6.125c0-5.25,4.781-7.594,8.469-7.594h0.063
			c1.531,0,3.031,0.406,4.5,1.156c2.375-0.125,4.781-0.406,6.5-0.625L843.161,169.951z M832.286,190.201
			c-2.125,0-3.188,0.281-4,0.938c-1.125,0.969-1.969,2.156-1.969,3.375c0,2.406,2.563,4.438,6.156,4.438
			c4.188,0,6.469-2.188,6.469-4.969c0-1.594-0.813-2.75-2.156-3.25c-1.219-0.438-2.531-0.531-4.438-0.531H832.286z M831.442,170.482
			c-1.875,0-3.688,1.813-3.688,5.406c0,3.531,1.656,6.063,4.188,6.063c2-0.031,3.719-1.813,3.719-5.406
			c0-3.469-1.594-6.063-4.188-6.063H831.442z"/>
		<linearGradient id="SVGID_13_" gradientUnits="userSpaceOnUse" x1="867.1416" y1="169.0668" x2="868.2405" y2="190.0341">
			<stop  offset="0" style="stop-color:#1E2061"/>
			<stop  offset="1" style="stop-color:#0D3E6B"/>
		</linearGradient>
		<path fill="url(#SVGID_13_)" d="M867.817,169.044c5.938,0,10.313,4.594,10.313,10.125c0,7.375-5.625,10.875-10.344,10.875
			c-6.656,0-10.531-5-10.531-10.031c0-7.469,6.125-10.969,10.531-10.969H867.817z M867.224,170.576
			c-2.688,0-5.188,2.719-5.188,7.875c0,5.781,2.5,10,6.25,10c2.688,0,5.094-1.813,5.094-8.219c0-5.469-2.188-9.656-6.094-9.656
			H867.224z"/>
		<linearGradient id="SVGID_14_" gradientUnits="userSpaceOnUse" x1="888.127" y1="157.2831" x2="889.8218" y2="189.6225">
			<stop  offset="0" style="stop-color:#1E2061"/>
			<stop  offset="1" style="stop-color:#0D3E6B"/>
		</linearGradient>
		<path fill="url(#SVGID_14_)" d="M883.911,169.576v-1.031c0-1.469,0.188-2.688,0.5-3.688c0.313-1.031,1.125-3.25,3.688-5.375
			c1.625-1.438,3.281-2.25,5.188-2.469c1.656,0.031,2.969,0.688,3.75,1.563c0.5,0.531,0.531,1.156,0.25,1.75
			c-0.188,0.375-0.5,0.75-0.938,1.094c-0.5,0.375-0.906,0.375-1.344-0.094c-0.938-0.906-2.313-1.813-3.813-1.813
			c-1.188,0-1.875,0.563-2.375,1.375c-0.531,0.813-1,2.938-0.906,6.781v1.906h5.5c0.281,0.406,0.063,1.594-0.5,1.906h-5v12.938
			c0,3.375,0.375,3.531,4,3.906v1.188h-11.313v-1.219c2.938-0.281,3.313-0.563,3.313-3.563v-13.25h-3.281l-0.219-0.531l1.313-1.375
			H883.911z"/>
		<linearGradient id="SVGID_15_" gradientUnits="userSpaceOnUse" x1="922.1035" y1="159.0473" x2="923.6903" y2="189.3251">
			<stop  offset="0" style="stop-color:#1E2061"/>
			<stop  offset="1" style="stop-color:#0D3E6B"/>
		</linearGradient>
		<path fill="url(#SVGID_15_)" d="M921.661,159.794c5.969,0,10.531,1.219,13.438,3.906c2.313,2.219,4,5.563,4,9.844
			c0,5.406-2.219,9.5-5.875,12.188c-3.594,2.594-8.375,3.781-14.156,3.781h-11.625v-1.313c4-0.281,4.406-0.563,4.406-4.469v-18.125
			c0-3.938-0.406-4.125-4-4.406v-1.406H921.661z M916.224,183.326c0,3.625,1.594,4.469,5.031,4.469
			c8.719,0,12.906-6.344,12.906-13.531c0-4.719-1.844-8.594-5.281-10.75c-2.156-1.438-4.969-2.125-8.313-2.125
			c-2.094,0-3.25,0.313-3.75,0.625c-0.438,0.313-0.594,0.875-0.594,2.656V183.326z"/>
		<linearGradient id="SVGID_16_" gradientUnits="userSpaceOnUse" x1="952.9844" y1="169.0663" x2="954.0833" y2="190.0346">
			<stop  offset="0" style="stop-color:#1E2061"/>
			<stop  offset="1" style="stop-color:#0D3E6B"/>
		</linearGradient>
		<path fill="url(#SVGID_16_)" d="M953.661,169.044c5.938,0,10.313,4.594,10.313,10.125c0,7.375-5.625,10.875-10.344,10.875
			c-6.656,0-10.531-5-10.531-10.031c0-7.469,6.125-10.969,10.531-10.969H953.661z M953.067,170.576
			c-2.688,0-5.188,2.719-5.188,7.875c0,5.781,2.5,10,6.25,10c2.688,0,5.094-1.813,5.094-8.219c0-5.469-2.188-9.656-6.094-9.656
			H953.067z"/>
		<linearGradient id="SVGID_17_" gradientUnits="userSpaceOnUse" x1="976.123" y1="156.8657" x2="977.8659" y2="190.1218">
			<stop  offset="0" style="stop-color:#1E2061"/>
			<stop  offset="1" style="stop-color:#0D3E6B"/>
		</linearGradient>
		<path fill="url(#SVGID_17_)" d="M979.442,189.513v-1.219c2.625-0.281,3-0.594,3-3.563v-7.406c0-3.781-1.563-5.563-4.438-5.563
			c-1.688,0-3.406,0.813-4.688,2.219v10.75c0,2.906,0.281,3.281,2.938,3.563v1.219H966.13v-1.219
			c2.781-0.281,3.188-0.563,3.188-3.563v-21.719c0-2.875-0.125-3.031-3.094-3.313v-1.094c2.188-0.313,5.188-1,7.094-1.594v15.344
			c1.75-1.688,4.188-3.313,6.656-3.313c3.813,0,6.5,2.313,6.5,7.906v7.781c0,3.063,0.344,3.281,3,3.563v1.219H979.442z"/>
	</g>
</g>
<g id="logo_1_">
	<g id="g10_1_" transform="matrix(1.25 0 0 -1.25 -926.7017 1570.637)">
		<path id="path12_1_" fill="#231F20" d="M1447.668,979.882h-76.48v75.664h76.48V979.882z"/>
		<path id="path14_1_" fill="#FFFFFF" d="M1445.833,1053.711l-73.013-0.204l0.204-71.382l72.605,0.203L1445.833,1053.711
			 M1390.155,990.164h-10.33v10.33h10.33V990.164 M1390.155,1007.633h-10.33v8.841h10.33V1007.633 M1390.155,1023.613h-10.33v9.177
			h10.33V1023.613 M1379.825,1039.928v9.177h10.33v-9.177H1379.825 M1406.136,990.164h-8.842v10.33h8.842V990.164
			 M1406.136,1007.633h-8.842v8.841h8.842V1007.633 M1406.136,1023.613h-8.842v9.177h8.842V1023.613 M1397.293,1039.928v9.177h8.842
			v-9.177H1397.293 M1422.45,990.164h-9.177v10.33h9.177V990.164 M1422.45,1007.633h-9.177v8.841h9.177V1007.633 M1422.45,1023.613
			h-9.177v9.177h9.177V1023.613 M1413.274,1039.928v9.177h9.177v-9.177H1413.274 M1438.766,990.164h-9.177v10.33h9.177V990.164
			 M1438.766,1007.633h-9.177v8.841h9.177V1007.633 M1438.766,1023.613h-9.177v9.177h9.177V1023.613 M1429.589,1039.928v9.177h9.177
			v-9.177H1429.589z"/>
		<path id="path16_1_" fill="#ED1C24" d="M936.556,981.247l89.73,127.469v-16.944h28.497v-16.945l14.25,18.484l25.802-36.199v32.734
			h34.274v-47.752l27.343,37.355l20.795-29.268l-29.653-41.975l15.789-22.722l84.338,118.612l61.233-85.493v70.089h37.74v-37.74
			c0,0,14.895,38.125,63.168,38.125c48.273,0,60.836-38.51,60.836-38.51v36.585h59.691l21.18,30.423l40.822-59.306l-90.885-125.543
			v39.28l-30.423-40.436v55.455c0,0-20.407-38.509-61.555-38.509c-41.148,0-62.065,37.739-62.065,37.739l-31.578-43.131
			l-37.74,53.53v-45.827h-59.306l-18.486-26.959l-27.727,39.281l-18.87-26.958l-27.728,43.517l-31.194-44.672v28.498l-19.255-27.344
			l-26.958,37.741l-29.268-39.28v17.33h-26.572l-18.1-26.573L936.556,981.247 M1409.482,1051.231
			c-17.928,0-32.463-14.534-32.463-32.462c0-17.93,14.535-32.464,32.463-32.464c17.929,0,32.463,14.534,32.463,32.464
			C1441.946,1036.698,1427.411,1051.231,1409.482,1051.231 M1535.568,1074.309v-35.895l14.073,17.948L1535.568,1074.309
			 M989.318,967.155v31.125l-11.467-14.47L989.318,967.155 M1070.818,1004.832l23.344-34.947v68.257l-23.344-33.309
			 M1213.083,962.888v31.095l-10.554-14.072L1213.083,962.888L1213.083,962.888z"/>
		
			<linearGradient id="path36_3_" gradientUnits="userSpaceOnUse" x1="1612.1567" y1="1606.6296" x2="1612.1558" y2="1431.7883" gradientTransform="matrix(1.25 0 0 1.25 -751.5933 -900.457)">
			<stop  offset="0" style="stop-color:#1E2061"/>
			<stop  offset="0.5168" style="stop-color:#0D3E6B"/>
			<stop  offset="0.6236" style="stop-color:#176FC1"/>
			<stop  offset="0.6258" style="stop-color:#FFFFFF"/>
			<stop  offset="0.6348" style="stop-color:#FFFFFF"/>
			<stop  offset="1" style="stop-color:#FFFFFF"/>
		</linearGradient>
		<path id="path36_1_" fill="url(#path36_3_)" d="M942.88,982.435l77.858,109.548V957.302H993.42v60.102l-22.675-33.056
			l19.123-27.866l-14.479-20.761L942.88,982.435 M1048.057,983.255l26.225-37.7l15.298,21.036l-26.772,39.338l30.323,44.257
			l-23.494,34.967l-15.572-20.762l12.294-17.211l-16.118-17.211v55.457h-24.041V952.658l21.855,30.595 M1125.915,987.08
			l28.139-42.344l15.298,22.947l-28.139,40.978l28.685,42.618l-13.933,19.67l-32.782-42.891v56.823h-23.494V953.205L1125.915,987.08
			 M1212.79,954.297l-16.391,25.953l22.402,35.514v-59.828h25.953v136.047l-78.406-110.913l33.056-48.081L1212.79,954.297
			 M1273.709,956.483v56.55l42.617-61.194l24.314,34.967v97.255h-26.498v-83.869l-65.019,92.884V956.483H1273.709 M1476.959,950.199
			l24.314,32.509v98.621h-24.314V950.199 M1507.01,1081.602V949.927l77.312,108.728l-32.782,49.174l-15.845-23.221l21.035-26.772
			l-27.319-34.694l0.033,58.423L1507.01,1081.602 M1409.482,1082.422c-35.155,0-63.653-28.498-63.653-63.653
			c0-35.155,28.498-63.652,63.653-63.652c35.155,0,63.653,28.497,63.653,63.652
			C1473.136,1053.924,1444.637,1082.422,1409.482,1082.422 M1447.674,1018.769c0-21.092-17.098-38.191-38.191-38.191
			c-21.093,0-38.192,17.098-38.192,38.191c0,21.093,17.099,38.192,38.192,38.192
			C1430.575,1056.961,1447.674,1039.862,1447.674,1018.769z"/>
		<g>
			<path id="path38_1_" fill="#FFFFFF" d="M942.151,982.296h-4.766l86.326,122.603l-3.442-13.24L942.151,982.296z"/>
			<path id="path40_1_" fill="#FFFFFF" d="M1026.093,1085.568h23.303l4.238,4.237h-27.275L1026.093,1085.568z"/>
			<path id="path42_1_" fill="#FFFFFF" d="M1054.958,1073.652l14.299,19.065v-8.209l-14.034-18.536L1054.958,1073.652z"/>
			<path id="path44_1_" fill="#FFFFFF" d="M1055.222,1040.816l-3.973-9.533l14.564,15.094h-6.355L1055.222,1040.816
				L1055.222,1040.816z"/>
			<path id="path46_1_" fill="#FFFFFF" d="M1096.002,1090.599h31.247l-3.973-5.296h-23.037L1096.002,1090.599z"/>
			<path id="path48_1_" fill="#FFFFFF" d="M1125.395,1030.224l3.972,11.651l26.216,34.955v-6.091L1125.395,1030.224
				L1125.395,1030.224z"/>
			<path id="path50_1_" fill="#FFFFFF" d="M1166.142,981.61l78.262,110.781l1.192,7.371l-81.731-114.791L1166.142,981.61
				L1166.142,981.61z"/>
			<path id="path52_1_" fill="#FFFFFF" d="M1315.258,1084.508h25.422l4.766,4.502h-34.953L1315.258,1084.508z"/>
			<path id="path54_1_" fill="#FFFFFF" d="M1346.035,1046.847c0,0,12.975,43.957,70.438,41.574c-0.53-2.118-1.323-4.767-1.323-4.767
				s-45.546,6.091-66.73-41.573C1347.094,1044.198,1346.035,1046.847,1346.035,1046.847z"/>
			<path id="path56_1_" fill="#FFFFFF" d="M1472.286,1086.892h57.991l20.92,27.804v-7.149l-17.477-25.686h-56.138L1472.286,1086.892
				L1472.286,1086.892z"/>
			<path id="path58_1_" fill="#FFFFFF" d="M1534.779,1037.374l15.094,19.066h6.09l-24.626-31.512L1534.779,1037.374z"/>
		</g>
	</g>
</g>
</svg>
