<?xml version="1.0" encoding="utf-8"?>
<!-- Generator: Adobe Illustrator 15.0.2, SVG Export Plug-In . SVG Version: 6.00 Build 0)  -->
<!DOCTYPE svg PUBLIC "-//W3C//DTD SVG 1.1//EN" "http://www.w3.org/Graphics/SVG/1.1/DTD/svg11.dtd">
<svg version="1.1" xmlns="http://www.w3.org/2000/svg" xmlns:xlink="http://www.w3.org/1999/xlink" x="0px" y="0px" width="1280px"
	 height="720px" viewBox="0 0 1280 720" enable-background="new 0 0 1280 720" xml:space="preserve">
<g id="BKG" display="none">
	<g display="inline">
		<rect x="0.5" y="0.5" fill="#5BBF3B" width="1279" height="719"/>
		<path d="M1279,1v718H1V1H1279 M1280,0H0v720h1280V0L1280,0z"/>
	</g>
</g>
<g id="SCOREBAND">
	<rect opacity="0.3" width="1280" height="42"/>
</g>
<g id="text">
	<g>
		<rect x="10" y="10" fill="none" width="630" height="40"/>
		<path fill="#FFFFFF" d="M22.229,19.583h-1.617v1.633h-8.019v-1.633h-1.569v-1.568h3.185v1.568h4.802v-3.185h-6.418v-1.585h-1.569
			v-3.201h1.569V9.995h6.418v1.617h1.601v1.569h-3.186v-1.569h-3.217v3.201h6.403v1.585h1.617V19.583z"/>
		<path fill="#FFFFFF" d="M35.477,19.583h-1.601v1.633h-6.403v-1.633h-1.617v-1.568h-1.584v-4.834h1.584v-1.569h1.617V9.995h6.403
			v1.617h1.601v1.569H32.26v-1.569h-3.186v1.569h-1.601v4.834h1.601v1.568h3.186v-1.568h3.217V19.583z"/>
		<path fill="#FFFFFF" d="M48.725,19.583h-1.601v1.633h-8.02v-1.633h-1.584v-7.971h1.584V9.995h8.02v1.617h1.601V19.583z
			 M45.508,19.583v-7.971h-4.802v7.971H45.508z"/>
		<path fill="#FFFFFF" d="M61.973,21.216h-4.802v-1.633H55.57v-1.568h-1.617v3.201h-3.185V9.995h9.604v1.617h1.601v4.786h-3.217
			v1.617h1.617v1.568h1.601V21.216z M58.756,14.813v-3.201h-4.802v4.786h3.217v-1.585H58.756z"/>
		<path fill="#FFFFFF" d="M75.221,21.216H64.017V9.995h11.205v1.617h-8.02v3.201h6.419v1.585h-6.419v3.185h8.02V21.216z"/>
	</g>
	<g>
		<rect x="640" y="10" fill="none" width="630" height="40"/>
		<path fill="#FFFFFF" d="M1176.246,21.216h-3.217v-4.818h-4.802v4.818h-3.186V9.995h3.186v4.818h4.802V9.995h3.217V21.216z"/>
		<path fill="#FFFFFF" d="M1188.774,11.612h-3.361v7.971h3.201v1.633h-9.604v-1.633h3.201v-7.971h-3.201V9.995h9.764V11.612z"/>
		<path fill="#FFFFFF" d="M1201.142,16.398h-8.019v-1.617h8.019V16.398z"/>
		<path fill="#FFFFFF" d="M1215.99,19.583h-1.616v1.633h-8.02v-1.633h-1.568v-1.568h3.186v1.568h4.802v-3.185h-6.419v-1.585h-1.568
			v-3.201h1.568V9.995h6.419v1.617h1.601v1.569h-3.186v-1.569h-3.217v3.201h6.402v1.585h1.616V19.583z"/>
		<path fill="#FFFFFF" d="M1229.238,19.583h-1.601v1.633h-6.402v-1.633h-1.616v-1.568h-1.585v-4.834h1.585v-1.569h1.616V9.995h6.402
			v1.617h1.601v1.569h-3.217v-1.569h-3.186v1.569h-1.601v4.834h1.601v1.568h3.186v-1.568h3.217V19.583z"/>
		<path fill="#FFFFFF" d="M1242.486,19.583h-1.601v1.633h-8.019v-1.633h-1.585v-7.971h1.585V9.995h8.019v1.617h1.601V19.583z
			 M1239.27,19.583v-7.971h-4.802v7.971H1239.27z"/>
		<path fill="#FFFFFF" d="M1255.734,21.216h-4.802v-1.633h-1.601v-1.568h-1.616v3.201h-3.186V9.995h9.604v1.617h1.601v4.786h-3.217
			v1.617h1.616v1.568h1.601V21.216z M1252.518,14.813v-3.201h-4.802v4.786h3.217v-1.585H1252.518z"/>
		<path fill="#FFFFFF" d="M1268.982,21.216h-11.204V9.995h11.204v1.617h-8.019v3.201h6.418v1.585h-6.418v3.185h8.019V21.216z"/>
	</g>
</g>
<g id="logo" display="none">
	<g id="g10" transform="matrix(1.25 0 0 -1.25 -926.7017 1570.637)" display="inline">
		<path id="path12" fill="#231F20" d="M1447.668,979.882h-76.48v75.664h76.48V979.882z"/>
		<path id="path14" fill="#FFFFFF" d="M1445.833,1053.711l-73.013-0.204l0.204-71.382l72.605,0.203L1445.833,1053.711
			 M1390.155,990.164h-10.33v10.33h10.33V990.164 M1390.155,1007.633h-10.33v8.841h10.33V1007.633 M1390.155,1023.613h-10.33v9.177
			h10.33V1023.613 M1379.825,1039.928v9.177h10.33v-9.177H1379.825 M1406.136,990.164h-8.842v10.33h8.842V990.164
			 M1406.136,1007.633h-8.842v8.841h8.842V1007.633 M1406.136,1023.613h-8.842v9.177h8.842V1023.613 M1397.293,1039.928v9.177h8.842
			v-9.177H1397.293 M1422.45,990.164h-9.177v10.33h9.177V990.164 M1422.45,1007.633h-9.177v8.841h9.177V1007.633 M1422.45,1023.613
			h-9.177v9.177h9.177V1023.613 M1413.274,1039.928v9.177h9.177v-9.177H1413.274 M1438.766,990.164h-9.177v10.33h9.177V990.164
			 M1438.766,1007.633h-9.177v8.841h9.177V1007.633 M1438.766,1023.613h-9.177v9.177h9.177V1023.613 M1429.589,1039.928v9.177h9.177
			v-9.177H1429.589z"/>
		<path id="path16" fill="#ED1C24" d="M936.556,981.247l89.73,127.469v-16.945h28.497v-16.944l14.25,18.484l25.802-36.199v32.734
			h34.274v-47.752l27.343,37.355l20.795-29.268l-29.653-41.975l15.789-22.722l84.338,118.612l61.233-85.493v70.089h37.74v-37.74
			c0,0,14.895,38.125,63.168,38.125c48.273,0,60.836-38.51,60.836-38.51v36.585h59.691l21.181,30.423l40.822-59.306l-90.885-125.543
			v39.28l-30.423-40.436v55.455c0,0-20.407-38.509-61.555-38.509c-41.148,0-62.065,37.739-62.065,37.739l-31.578-43.131
			l-37.74,53.53v-45.827h-59.306l-18.486-26.959l-27.727,39.281l-18.87-26.958l-27.728,43.517l-31.194-44.672v28.498l-19.255-27.344
			l-26.958,37.741l-29.268-39.28v17.33h-26.572l-18.1-26.573L936.556,981.247 M1409.483,1051.231
			c-17.928,0-32.463-14.534-32.463-32.462c0-17.93,14.535-32.464,32.463-32.464c17.929,0,32.463,14.534,32.463,32.464
			C1441.946,1036.698,1427.411,1051.231,1409.483,1051.231 M1535.568,1074.309v-35.895l14.073,17.948L1535.568,1074.309
			 M989.318,967.155v31.125l-11.467-14.47L989.318,967.155 M1070.818,1004.832l23.344-34.947v68.257l-23.344-33.309
			 M1213.083,962.888v31.095l-10.554-14.072L1213.083,962.888L1213.083,962.888z"/>
		
			<linearGradient id="path36_1_" gradientUnits="userSpaceOnUse" x1="1612.2365" y1="1606.5494" x2="1612.2355" y2="1431.7081" gradientTransform="matrix(1.25 0 0 1.25 -751.6934 -900.357)">
			<stop  offset="0" style="stop-color:#1E2061"/>
			<stop  offset="0.5168" style="stop-color:#0D3E6B"/>
			<stop  offset="0.6236" style="stop-color:#176FC1"/>
			<stop  offset="0.6258" style="stop-color:#FFFFFF"/>
			<stop  offset="0.6348" style="stop-color:#FFFFFF"/>
			<stop  offset="1" style="stop-color:#FFFFFF"/>
		</linearGradient>
		<path id="path36" fill="url(#path36_1_)" d="M942.88,982.435l77.858,109.548V957.302H993.42v60.102l-22.675-33.056l19.123-27.866
			l-14.479-20.761L942.88,982.435 M1048.057,983.255l26.225-37.7l15.298,21.036l-26.772,39.338l30.323,44.257l-23.494,34.967
			l-15.572-20.762l12.294-17.211l-16.118-17.211v55.457h-24.041V952.658l21.855,30.595 M1125.915,987.08l28.139-42.344
			l15.298,22.947l-28.139,40.978l28.685,42.618l-13.933,19.67l-32.782-42.891v56.823h-23.494V953.205L1125.915,987.08
			 M1212.79,954.297l-16.391,25.953l22.402,35.514v-59.828h25.953v136.047l-78.406-110.913l33.056-48.081L1212.79,954.297
			 M1273.709,956.483v56.55l42.617-61.194l24.314,34.967v97.255h-26.498v-83.869l-65.019,92.884V956.483H1273.709 M1476.959,950.199
			l24.314,32.509v98.622h-24.314V950.199 M1507.01,1081.602V949.927l77.312,108.728l-32.782,49.174l-15.845-23.221l21.035-26.772
			l-27.319-34.695l0.033,58.423L1507.01,1081.602 M1409.483,1082.422c-35.155,0-63.653-28.498-63.653-63.653
			c0-35.155,28.498-63.652,63.653-63.652c35.155,0,63.653,28.497,63.653,63.652
			C1473.136,1053.924,1444.637,1082.422,1409.483,1082.422 M1447.674,1018.769c0-21.092-17.099-38.191-38.191-38.191
			c-21.093,0-38.192,17.098-38.192,38.191c0,21.093,17.099,38.192,38.192,38.192
			C1430.575,1056.961,1447.674,1039.862,1447.674,1018.769z"/>
		<g>
			<path id="path38" fill="#FFFFFF" d="M942.151,982.296h-4.766l86.326,122.603l-3.442-13.24L942.151,982.296z"/>
			<path id="path40" fill="#FFFFFF" d="M1026.093,1085.568h23.303l4.237,4.237h-27.275L1026.093,1085.568z"/>
			<path id="path42" fill="#FFFFFF" d="M1054.958,1073.652l14.299,19.065v-8.209l-14.034-18.536L1054.958,1073.652z"/>
			<path id="path44" fill="#FFFFFF" d="M1055.222,1040.816l-3.973-9.533l14.564,15.094h-6.355L1055.222,1040.816L1055.222,1040.816z
				"/>
			<path id="path46" fill="#FFFFFF" d="M1096.002,1090.599h31.247l-3.973-5.296h-23.037L1096.002,1090.599z"/>
			<path id="path48" fill="#FFFFFF" d="M1125.395,1030.224l3.972,11.651l26.216,34.955v-6.091L1125.395,1030.224L1125.395,1030.224z
				"/>
			<path id="path50" fill="#FFFFFF" d="M1166.142,981.61l78.263,110.781l1.192,7.371l-81.731-114.791L1166.142,981.61
				L1166.142,981.61z"/>
			<path id="path52" fill="#FFFFFF" d="M1315.258,1084.508h25.422l4.766,4.502h-34.953L1315.258,1084.508z"/>
			<path id="path54" fill="#FFFFFF" d="M1346.035,1046.847c0,0,12.975,43.957,70.438,41.574c-0.53-2.118-1.323-4.767-1.323-4.767
				s-45.546,6.091-66.73-41.573C1347.094,1044.198,1346.035,1046.847,1346.035,1046.847z"/>
			<path id="path56" fill="#FFFFFF" d="M1472.286,1086.892h57.991l20.92,27.804v-7.149l-17.477-25.686h-56.138L1472.286,1086.892
				L1472.286,1086.892z"/>
			<path id="path58" fill="#FFFFFF" d="M1534.779,1037.374l15.094,19.066h6.09l-24.626-31.512L1534.779,1037.374z"/>
		</g>
	</g>
</g>
</svg>
