<?xml version="1.0" encoding="utf-8"?>
<!-- Generator: Adobe Illustrator 15.0.2, SVG Export Plug-In . SVG Version: 6.00 Build 0)  -->
<!DOCTYPE svg PUBLIC "-//W3C//DTD SVG 1.1//EN" "http://www.w3.org/Graphics/SVG/1.1/DTD/svg11.dtd">
<svg version="1.1" id="Layer_1" xmlns="http://www.w3.org/2000/svg" xmlns:xlink="http://www.w3.org/1999/xlink" x="0px" y="0px"
	 width="64px" height="8px" viewBox="0 0 64 8" enable-background="new 0 0 64 8" xml:space="preserve">
<path fill="#8FA2AA" d="M13.446,0.667V0h37.108v0.667H13.446z M13.446,8V7.334h37.108V8H13.446z"/>
<path fill="#094761" d="M13.446,0v0.667h-4.8H7.292c-1.682,0-3.118,0.322-4.308,0.967l-0.154,0.1C1.764,2.366,1.23,3.122,1.23,4
	c0,0.922,0.585,1.705,1.754,2.35c1.19,0.656,2.625,0.984,4.308,0.984h4.615h1.539V8H7.292C5.261,8,3.538,7.605,2.123,6.816
	C0.708,6.039,0,5.1,0,4c0-1.045,0.636-1.944,1.907-2.7l0.185-0.134c0.78-0.422,1.641-0.728,2.584-0.917C5.477,0.083,6.349,0,7.292,0
	H13.446z M2.092,1.167h0.031H2.092z M50.554,0.667V0h6.154c0.943,0,1.814,0.083,2.615,0.25c0.943,0.188,1.794,0.495,2.554,0.917
	L62.092,1.3C63.364,2.056,64,2.955,64,4c0,1.1-0.708,2.039-2.123,2.816C60.461,7.605,58.738,8,56.708,8h-6.154V7.334h1.538h4.616
	c1.682,0,3.118-0.328,4.308-0.984C62.185,5.705,62.77,4.922,62.77,4c0-0.878-0.533-1.634-1.6-2.267l-0.154-0.1
	c-1.189-0.645-2.626-0.967-4.308-0.967h-1.354H50.554z M61.877,1.167h0.03H61.877z"/>
<path fill="#3C9AC2" d="M13.446,7.334h-1.539L10.154,4H2.769c0-0.878,0.533-1.634,1.6-2.267l0.154-0.1
	c1.149-0.623,2.523-0.945,4.124-0.967h4.8L11.692,4L13.446,7.334z M52.308,4l-1.754-3.333h4.8c1.6,0.021,2.975,0.344,4.123,0.967
	l0.154,0.1c1.066,0.633,1.6,1.389,1.6,2.267h-7.385l-1.754,3.334h-1.538L52.308,4z"/>
<path fill="#0E7099" d="M11.907,7.334H7.292c-1.682,0-3.118-0.328-4.308-0.984C1.815,5.705,1.23,4.922,1.23,4
	c0-0.878,0.533-1.634,1.6-2.267l0.154-0.1c1.19-0.645,2.625-0.967,4.308-0.967h1.354c-1.6,0.021-2.974,0.344-4.124,0.967l-0.154,0.1
	C3.302,2.366,2.769,3.122,2.769,4h7.385L11.907,7.334z M55.354,0.667h1.354c1.682,0,3.118,0.322,4.308,0.967l0.154,0.1
	c1.066,0.633,1.6,1.389,1.6,2.267c0,0.922-0.585,1.705-1.754,2.35c-1.189,0.656-2.626,0.984-4.308,0.984h-4.616L53.846,4h7.385
	c0-0.878-0.533-1.634-1.6-2.267l-0.154-0.1C58.328,1.011,56.953,0.688,55.354,0.667z"/>
<path fill="#BDD1D9" d="M13.446,0.667h37.108L52.308,4H11.692L13.446,0.667z"/>
<path fill="#A8C4D0" d="M11.692,4h40.615l-1.754,3.334H13.446L11.692,4z"/>
</svg>
