<svg version="1.1" x="0px" y="0px" width="200px" height="200px" cl:seamlessversion="2.0" cl:fivecolor="true" viewBox="0 0 200 200" cl:filetype="pattern" cl:clientversion="1.1.2" cl:target="air" cl:c1="13421772" cl:c2="10066329" cl:c3="6710886" cl:c4="3355443" cl:c5="0" xmlns="http://www.w3.org/2000/svg" xmlns:xlink="http://www.w3.org/1999/xlink" xmlns:cl="http://www.colourlovers.com/">
  <defs>
    <clipPath id="canvasClip">
      <rect x="0" y="0" width="200" height="200"/>
    </clipPath>
  </defs>
  <g id="wrapper" style="clip-path:url(#canvasClip);">
    <rect x="0" y="0" width="200" height="200" fill="#CCCCCC" id="background"/>
    <g cl:shapetype="customshape" stroke-width="0" fill="#666666" stroke="#666666" cl:layername="U2hhcGUgMTA=">
      <g transform="matrix(-22.92 -168.7 168.6 -22.93 91.15 7.5)">
        <g transform="matrix(0.005325 0 0 0.005325 -0.5 -0.5)">
          <path d="M102.396,100c-0.002,0.043-0.004,0.084-0.004,0.127l91.275,4.993c-0.788,8.795-0.237,4.407-1.654,13.164&#xD;&#xA;l-89.661-17.838c-0.01,0.041-0.02,0.081-0.029,0.121s-0.021,0.08-0.033,0.12l87.175,27.53c-2.988,8.396-1.349,4.264-4.919,12.402&#xD;&#xA;l-82.375-39.633c-0.019,0.037-0.038,0.074-0.057,0.112c-0.021,0.034-0.043,0.069-0.063,0.105l77.546,48.392&#xD;&#xA;c-4.957,7.337-2.353,3.763-7.81,10.724l-69.926-58.854c-0.029,0.03-0.056,0.062-0.085,0.093c-0.028,0.029-0.057,0.06-0.087,0.088&#xD;&#xA;l63.112,66.106c-6.608,5.871-3.205,3.055-10.213,8.449l-53.15-74.349c-0.033,0.022-0.066,0.046-0.1,0.068&#xD;&#xA;c-0.037,0.021-0.073,0.043-0.108,0.063l44.728,79.703c-7.911,4.076-3.89,2.183-12.055,5.679l-32.965-85.243&#xD;&#xA;c-0.038,0.014-0.078,0.028-0.116,0.042c-0.04,0.013-0.081,0.022-0.121,0.034l23.417,88.346c-8.674,1.97-4.309,1.141-13.09,2.485&#xD;&#xA;l-10.644-90.77c-0.041,0.004-0.082,0.008-0.124,0.011c-0.041,0.002-0.083,0.003-0.124,0.004l0.701,91.391&#xD;&#xA;c-8.854-0.239-4.445,0.036-13.228-0.823l12.202-90.587c-0.04-0.007-0.081-0.012-0.121-0.021c-0.043-0.008-0.082-0.017-0.125-0.027&#xD;&#xA;l-22.06,88.717c-8.558-2.443-4.32-1.069-12.695-4.123l34.449-84.693c-0.037-0.016-0.076-0.032-0.114-0.049&#xD;&#xA;c-0.037-0.02-0.074-0.038-0.111-0.058l-43.51,80.424c-7.639-4.483-3.908-2.11-11.21-7.125l54.447-73.471&#xD;&#xA;c-0.034-0.026-0.066-0.051-0.098-0.077c-0.032-0.025-0.064-0.054-0.094-0.082l-62.119,67.123c-6.276-6.22-3.25-3.004-9.07-9.649&#xD;&#xA;l70.969-57.709c-0.025-0.032-0.052-0.064-0.077-0.099c-0.023-0.033-0.047-0.066-0.07-0.103l-76.841,49.647&#xD;&#xA;c-4.556-7.609-2.411-3.721-6.424-11.654l83.111-38.276c-0.018-0.037-0.035-0.076-0.049-0.113c-0.016-0.038-0.03-0.077-0.042-0.116&#xD;&#xA;l-86.803,28.965c-2.517-8.531-1.414-4.228-3.315-12.919l90.036-16.36c-0.007-0.04-0.013-0.082-0.018-0.122&#xD;&#xA;c-0.005-0.042-0.008-0.083-0.012-0.123l-91.279,6.479c-0.312-8.858-0.312-4.428,0-13.285l91.279,6.479&#xD;&#xA;c0.003-0.042,0.006-0.083,0.012-0.124c0.005-0.039,0.011-0.081,0.018-0.122L7.838,83.231c1.901-8.692,0.798-4.389,3.315-12.918&#xD;&#xA;l86.803,28.965c0.013-0.039,0.026-0.077,0.042-0.116c0.015-0.039,0.032-0.077,0.049-0.114L14.937,60.771&#xD;&#xA;c4.012-7.931,1.87-4.047,6.424-11.652l76.841,49.646c0.022-0.035,0.047-0.069,0.07-0.104c0.025-0.033,0.052-0.065,0.077-0.098&#xD;&#xA;L27.38,40.854c5.82-6.646,2.794-3.43,9.07-9.65L98.57,98.328c0.03-0.028,0.062-0.057,0.094-0.083&#xD;&#xA;c0.032-0.024,0.063-0.05,0.098-0.076L44.314,24.698c7.304-5.015,3.566-2.64,11.21-7.126l43.51,80.424&#xD;&#xA;c0.037-0.019,0.074-0.037,0.111-0.056c0.038-0.018,0.077-0.035,0.114-0.052L64.811,13.197c8.373-3.054,4.139-1.68,12.693-4.124&#xD;&#xA;l22.061,88.718c0.043-0.011,0.082-0.02,0.125-0.028c0.041-0.007,0.081-0.014,0.121-0.019L87.609,7.156&#xD;&#xA;c8.786-0.86,4.368-0.584,13.228-0.824l-0.701,91.391c0.041,0.002,0.083,0.003,0.124,0.005c0.042,0.003,0.083,0.008,0.124,0.012&#xD;&#xA;l10.644-90.772c8.778,1.345,4.417,0.518,13.09,2.487l-23.417,88.345c0.04,0.012,0.081,0.022,0.121,0.035&#xD;&#xA;c0.038,0.014,0.078,0.028,0.116,0.042l32.965-85.245c8.164,3.497,4.146,1.605,12.055,5.68L101.23,98.014&#xD;&#xA;c0.035,0.021,0.071,0.042,0.108,0.063c0.033,0.022,0.066,0.047,0.1,0.069l53.15-74.348c7.008,5.395,3.604,2.578,10.213,8.45&#xD;&#xA;l-63.112,66.104c0.03,0.028,0.059,0.06,0.087,0.089c0.029,0.03,0.056,0.063,0.085,0.093l69.926-58.853&#xD;&#xA;c5.457,6.961,2.853,3.386,7.81,10.724l-77.546,48.39c0.021,0.036,0.042,0.072,0.063,0.108c0.019,0.035,0.038,0.073,0.057,0.109&#xD;&#xA;l82.375-39.632c3.57,8.139,1.931,4.006,4.919,12.401L102.29,99.314c0.013,0.037,0.023,0.079,0.033,0.119s0.02,0.081,0.029,0.121&#xD;&#xA;l89.661-17.837c1.417,8.756,0.866,4.366,1.654,13.163l-91.275,4.994C102.393,99.915,102.395,99.958,102.396,100z" stroke-width="0" stroke="#666666" fill="#666666"/>
        </g>
      </g>
      <g transform="matrix(-22.92 -168.7 168.6 -22.93 91.15 207.5)">
        <g transform="matrix(0.005325 0 0 0.005325 -0.5 -0.5)">
          <path d="M102.396,100c-0.002,0.043-0.004,0.084-0.004,0.127l91.275,4.993c-0.788,8.795-0.237,4.407-1.654,13.164&#xD;&#xA;l-89.661-17.838c-0.01,0.041-0.02,0.081-0.029,0.121s-0.021,0.08-0.033,0.12l87.175,27.53c-2.988,8.396-1.349,4.264-4.919,12.402&#xD;&#xA;l-82.375-39.633c-0.019,0.037-0.038,0.074-0.057,0.112c-0.021,0.034-0.043,0.069-0.063,0.105l77.546,48.392&#xD;&#xA;c-4.957,7.337-2.353,3.763-7.81,10.724l-69.926-58.854c-0.029,0.03-0.056,0.062-0.085,0.093c-0.028,0.029-0.057,0.06-0.087,0.088&#xD;&#xA;l63.112,66.106c-6.608,5.871-3.205,3.055-10.213,8.449l-53.15-74.349c-0.033,0.022-0.066,0.046-0.1,0.068&#xD;&#xA;c-0.037,0.021-0.073,0.043-0.108,0.063l44.728,79.703c-7.911,4.076-3.89,2.183-12.055,5.679l-32.965-85.243&#xD;&#xA;c-0.038,0.014-0.078,0.028-0.116,0.042c-0.04,0.013-0.081,0.022-0.121,0.034l23.417,88.346c-8.674,1.97-4.309,1.141-13.09,2.485&#xD;&#xA;l-10.644-90.77c-0.041,0.004-0.082,0.008-0.124,0.011c-0.041,0.002-0.083,0.003-0.124,0.004l0.701,91.391&#xD;&#xA;c-8.854-0.239-4.445,0.036-13.228-0.823l12.202-90.587c-0.04-0.007-0.081-0.012-0.121-0.021c-0.043-0.008-0.082-0.017-0.125-0.027&#xD;&#xA;l-22.06,88.717c-8.558-2.443-4.32-1.069-12.695-4.123l34.449-84.693c-0.037-0.016-0.076-0.032-0.114-0.049&#xD;&#xA;c-0.037-0.02-0.074-0.038-0.111-0.058l-43.51,80.424c-7.639-4.483-3.908-2.11-11.21-7.125l54.447-73.471&#xD;&#xA;c-0.034-0.026-0.066-0.051-0.098-0.077c-0.032-0.025-0.064-0.054-0.094-0.082l-62.119,67.123c-6.276-6.22-3.25-3.004-9.07-9.649&#xD;&#xA;l70.969-57.709c-0.025-0.032-0.052-0.064-0.077-0.099c-0.023-0.033-0.047-0.066-0.07-0.103l-76.841,49.647&#xD;&#xA;c-4.556-7.609-2.411-3.721-6.424-11.654l83.111-38.276c-0.018-0.037-0.035-0.076-0.049-0.113c-0.016-0.038-0.03-0.077-0.042-0.116&#xD;&#xA;l-86.803,28.965c-2.517-8.531-1.414-4.228-3.315-12.919l90.036-16.36c-0.007-0.04-0.013-0.082-0.018-0.122&#xD;&#xA;c-0.005-0.042-0.008-0.083-0.012-0.123l-91.279,6.479c-0.312-8.858-0.312-4.428,0-13.285l91.279,6.479&#xD;&#xA;c0.003-0.042,0.006-0.083,0.012-0.124c0.005-0.039,0.011-0.081,0.018-0.122L7.838,83.231c1.901-8.692,0.798-4.389,3.315-12.918&#xD;&#xA;l86.803,28.965c0.013-0.039,0.026-0.077,0.042-0.116c0.015-0.039,0.032-0.077,0.049-0.114L14.937,60.771&#xD;&#xA;c4.012-7.931,1.87-4.047,6.424-11.652l76.841,49.646c0.022-0.035,0.047-0.069,0.07-0.104c0.025-0.033,0.052-0.065,0.077-0.098&#xD;&#xA;L27.38,40.854c5.82-6.646,2.794-3.43,9.07-9.65L98.57,98.328c0.03-0.028,0.062-0.057,0.094-0.083&#xD;&#xA;c0.032-0.024,0.063-0.05,0.098-0.076L44.314,24.698c7.304-5.015,3.566-2.64,11.21-7.126l43.51,80.424&#xD;&#xA;c0.037-0.019,0.074-0.037,0.111-0.056c0.038-0.018,0.077-0.035,0.114-0.052L64.811,13.197c8.373-3.054,4.139-1.68,12.693-4.124&#xD;&#xA;l22.061,88.718c0.043-0.011,0.082-0.02,0.125-0.028c0.041-0.007,0.081-0.014,0.121-0.019L87.609,7.156&#xD;&#xA;c8.786-0.86,4.368-0.584,13.228-0.824l-0.701,91.391c0.041,0.002,0.083,0.003,0.124,0.005c0.042,0.003,0.083,0.008,0.124,0.012&#xD;&#xA;l10.644-90.772c8.778,1.345,4.417,0.518,13.09,2.487l-23.417,88.345c0.04,0.012,0.081,0.022,0.121,0.035&#xD;&#xA;c0.038,0.014,0.078,0.028,0.116,0.042l32.965-85.245c8.164,3.497,4.146,1.605,12.055,5.68L101.23,98.014&#xD;&#xA;c0.035,0.021,0.071,0.042,0.108,0.063c0.033,0.022,0.066,0.047,0.1,0.069l53.15-74.348c7.008,5.395,3.604,2.578,10.213,8.45&#xD;&#xA;l-63.112,66.104c0.03,0.028,0.059,0.06,0.087,0.089c0.029,0.03,0.056,0.063,0.085,0.093l69.926-58.853&#xD;&#xA;c5.457,6.961,2.853,3.386,7.81,10.724l-77.546,48.39c0.021,0.036,0.042,0.072,0.063,0.108c0.019,0.035,0.038,0.073,0.057,0.109&#xD;&#xA;l82.375-39.632c3.57,8.139,1.931,4.006,4.919,12.401L102.29,99.314c0.013,0.037,0.023,0.079,0.033,0.119s0.02,0.081,0.029,0.121&#xD;&#xA;l89.661-17.837c1.417,8.756,0.866,4.366,1.654,13.163l-91.275,4.994C102.393,99.915,102.395,99.958,102.396,100z" stroke-width="0" stroke="#666666" fill="#666666"/>
        </g>
      </g>
    </g>
    <g cl:shapetype="customshape" stroke-width="0" fill="#666666" stroke="#666666" cl:layername="U2hhcGUgMTE=">
      <g transform="matrix(100.9 -3.527 3.527 100.9 197.8 105.7)">
        <g transform="matrix(0.002487 0 0 0.002487 -0.5 -0.25)">
          <path fill="#666666" d="M0,0.59c0,0,0.595,150.076,99.854,150.076c99.266,0,225.699,0,225.699,0&#xD;&#xA;v50.215L400,100.443L324.969,0v50.812H100.444C100.444,50.812,0,50.812,0,0.59z" stroke-width="0" stroke="#666666"/>
        </g>
      </g>
      <g transform="matrix(100.9 -3.527 3.527 100.9 -2.15 105.7)">
        <g transform="matrix(0.002487 0 0 0.002487 -0.5 -0.25)">
          <path fill="#666666" d="M0,0.59c0,0,0.595,150.076,99.854,150.076c99.266,0,225.699,0,225.699,0&#xD;&#xA;v50.215L400,100.443L324.969,0v50.812H100.444C100.444,50.812,0,50.812,0,0.59z" stroke-width="0" stroke="#666666"/>
        </g>
      </g>
    </g>
    <g cl:shapetype="customshape" stroke-width="0" fill="#666666" stroke="#666666" cl:layername="U2hhcGUgMTI=">
      <g transform="matrix(146.2 -51.14 51.14 146.2 6.75 110.4)">
        <g transform="matrix(0.005508 0 0 0.005508 -0.5 -0.5)">
          <circle fill-rule="evenodd" clip-rule="evenodd" cx="90.667" cy="90.667" r="90.667" stroke-width="0" stroke="#666666" fill="#666666"/>
        </g>
      </g>
      <g transform="matrix(146.2 -51.14 51.14 146.2 206.8 110.4)">
        <g transform="matrix(0.005508 0 0 0.005508 -0.5 -0.5)">
          <circle fill-rule="evenodd" clip-rule="evenodd" cx="90.667" cy="90.667" r="90.667" stroke-width="0" stroke="#666666" fill="#666666"/>
        </g>
      </g>
      <g transform="matrix(146.2 -51.14 51.14 146.2 6.75 -89.6)">
        <g transform="matrix(0.005508 0 0 0.005508 -0.5 -0.5)">
          <circle fill-rule="evenodd" clip-rule="evenodd" cx="90.667" cy="90.667" r="90.667" stroke-width="0" stroke="#666666" fill="#666666"/>
        </g>
      </g>
      <g transform="matrix(146.2 -51.14 51.14 146.2 206.8 -89.6)">
        <g transform="matrix(0.005508 0 0 0.005508 -0.5 -0.5)">
          <circle fill-rule="evenodd" clip-rule="evenodd" cx="90.667" cy="90.667" r="90.667" stroke-width="0" stroke="#666666" fill="#666666"/>
        </g>
      </g>
    </g>
    <g cl:shapetype="customshape" stroke-width="0" fill="#CCCCCC" stroke="#CCCCCC" cl:layername="U2hhcGUgMTM=">
      <g transform="matrix(65.67 0 0 65.67 45.9 87.75)">
        <g transform="matrix(0.006744 0 0 0.006744 -0.1 -0.5)">
          <g stroke-width="0" stroke="#CCCCCC" fill="#CCCCCC">
            
            <path d="M21.8,0c2.266,0,4.101,0.7,5.5,2.1s2.101,3.3,2.101,5.7v132.6c0,2.399-0.701,4.3-2.101,5.7c-1.399,1.399-3.234,2.1-5.5,2.1&#xD;&#xA;c-2.4,0-4.3-0.7-5.7-2.1c-1.4-1.4-2.1-3.301-2.1-5.7v-125H8c-2.269,0-4.168-0.7-5.7-2.1S0,10.069,0,7.8c0-2.4,0.769-4.3,2.3-5.7&#xD;&#xA;S5.731,0,8,0H21.8z"/>
            
          </g>
        </g>
      </g>
    </g>
  </g>
</svg>